<mxfile host="app.diagrams.net" modified="2024-05-07T10:42:58.499Z" agent="Mozilla/5.0 (Windows NT 10.0; Win64; x64) AppleWebKit/537.36 (KHTML, like Gecko) Chrome/124.0.0.0 Safari/537.36" etag="evMsU0ct0wSeg64q_G6m" version="24.3.1" type="device">
  <diagram id="C5RBs43oDa-KdzZeNtuy" name="Page-1">
    <mxGraphModel dx="1050" dy="522" grid="1" gridSize="10" guides="1" tooltips="1" connect="1" arrows="1" fold="1" page="1" pageScale="1" pageWidth="827" pageHeight="1169" math="0" shadow="0">
      <root>
        <mxCell id="WIyWlLk6GJQsqaUBKTNV-0" />
        <mxCell id="WIyWlLk6GJQsqaUBKTNV-1" parent="WIyWlLk6GJQsqaUBKTNV-0" />
        <mxCell id="WIyWlLk6GJQsqaUBKTNV-9" value="Yes" style="edgeStyle=orthogonalEdgeStyle;rounded=0;html=1;jettySize=auto;orthogonalLoop=1;fontSize=11;endArrow=block;endFill=0;endSize=8;strokeWidth=1;shadow=0;labelBackgroundColor=none;" parent="WIyWlLk6GJQsqaUBKTNV-1" source="WIyWlLk6GJQsqaUBKTNV-10" edge="1">
          <mxGeometry y="10" relative="1" as="geometry">
            <mxPoint as="offset" />
            <mxPoint x="320" y="330" as="targetPoint" />
          </mxGeometry>
        </mxCell>
        <mxCell id="oWXgFaESNL9Rkz_xBfFm-4" value="&lt;span style=&quot;font-size: 15px;&quot;&gt;&lt;font style=&quot;font-size: 15px;&quot;&gt;Website Input Page&lt;/font&gt;&lt;/span&gt;" style="rounded=0;whiteSpace=wrap;html=1;fillColor=#d5e8d4;strokeColor=#82b366;strokeWidth=2;fontSize=15;fontStyle=1" vertex="1" parent="WIyWlLk6GJQsqaUBKTNV-1">
          <mxGeometry x="310" y="150" width="230" height="85" as="geometry" />
        </mxCell>
        <mxCell id="oWXgFaESNL9Rkz_xBfFm-5" value="Audio Input" style="rhombus;whiteSpace=wrap;html=1;fillColor=#fff2cc;strokeColor=#d6b656;strokeWidth=2;fontSize=13;fontStyle=1" vertex="1" parent="WIyWlLk6GJQsqaUBKTNV-1">
          <mxGeometry x="240" y="265" width="150" height="80" as="geometry" />
        </mxCell>
        <mxCell id="oWXgFaESNL9Rkz_xBfFm-6" value="Text Input" style="rhombus;whiteSpace=wrap;html=1;fillColor=#fff2cc;strokeColor=#d6b656;strokeWidth=2;fontSize=13;fontStyle=1" vertex="1" parent="WIyWlLk6GJQsqaUBKTNV-1">
          <mxGeometry x="450" y="335" width="154" height="80" as="geometry" />
        </mxCell>
        <mxCell id="oWXgFaESNL9Rkz_xBfFm-7" value="" style="endArrow=classic;html=1;rounded=0;exitX=0.25;exitY=1;exitDx=0;exitDy=0;entryX=0.5;entryY=0;entryDx=0;entryDy=0;strokeWidth=2;fontSize=13;fontStyle=1" edge="1" parent="WIyWlLk6GJQsqaUBKTNV-1" source="oWXgFaESNL9Rkz_xBfFm-4" target="oWXgFaESNL9Rkz_xBfFm-5">
          <mxGeometry width="50" height="50" relative="1" as="geometry">
            <mxPoint x="390" y="425" as="sourcePoint" />
            <mxPoint x="440" y="375" as="targetPoint" />
          </mxGeometry>
        </mxCell>
        <mxCell id="oWXgFaESNL9Rkz_xBfFm-8" value="" style="endArrow=classic;html=1;rounded=0;exitX=0.75;exitY=1;exitDx=0;exitDy=0;entryX=0.5;entryY=0;entryDx=0;entryDy=0;strokeWidth=2;fontSize=13;fontStyle=1" edge="1" parent="WIyWlLk6GJQsqaUBKTNV-1" source="oWXgFaESNL9Rkz_xBfFm-4" target="oWXgFaESNL9Rkz_xBfFm-6">
          <mxGeometry width="50" height="50" relative="1" as="geometry">
            <mxPoint x="394" y="245" as="sourcePoint" />
            <mxPoint x="325" y="295" as="targetPoint" />
          </mxGeometry>
        </mxCell>
        <mxCell id="oWXgFaESNL9Rkz_xBfFm-9" value="&lt;div style=&quot;font-size: 13px;&quot;&gt;Convert Audio to text&lt;/div&gt;" style="rhombus;whiteSpace=wrap;html=1;fillColor=#fff2cc;strokeColor=#d6b656;strokeWidth=2;fontSize=13;fontStyle=1" vertex="1" parent="WIyWlLk6GJQsqaUBKTNV-1">
          <mxGeometry x="235" y="395" width="160" height="70" as="geometry" />
        </mxCell>
        <mxCell id="oWXgFaESNL9Rkz_xBfFm-10" value="&lt;div style=&quot;font-size: 13px;&quot;&gt;Confirm the text to be in English&lt;/div&gt;" style="rhombus;whiteSpace=wrap;html=1;fillColor=#fff2cc;strokeColor=#d6b656;strokeWidth=2;fontSize=13;fontStyle=1" vertex="1" parent="WIyWlLk6GJQsqaUBKTNV-1">
          <mxGeometry x="342" y="495" width="156" height="80" as="geometry" />
        </mxCell>
        <mxCell id="oWXgFaESNL9Rkz_xBfFm-12" value="&lt;font style=&quot;font-size: 15px;&quot;&gt;&lt;span style=&quot;font-size: 15px;&quot;&gt;Website output Page&lt;/span&gt;&lt;/font&gt;" style="rounded=0;whiteSpace=wrap;html=1;fillColor=#dae8fc;strokeColor=#6c8ebf;strokeWidth=2;fontSize=15;fontStyle=1" vertex="1" parent="WIyWlLk6GJQsqaUBKTNV-1">
          <mxGeometry x="280" y="742" width="280" height="88" as="geometry" />
        </mxCell>
        <mxCell id="oWXgFaESNL9Rkz_xBfFm-13" value="&lt;div style=&quot;font-size: 13px;&quot;&gt;Recipe Retrieval&lt;/div&gt;" style="rhombus;whiteSpace=wrap;html=1;fillColor=#fff2cc;strokeColor=#d6b656;strokeWidth=2;fontSize=13;fontStyle=1" vertex="1" parent="WIyWlLk6GJQsqaUBKTNV-1">
          <mxGeometry x="240" y="605" width="156" height="80" as="geometry" />
        </mxCell>
        <mxCell id="oWXgFaESNL9Rkz_xBfFm-14" value="&lt;div style=&quot;font-size: 13px;&quot;&gt;Recipe Generation Model&lt;/div&gt;" style="rhombus;whiteSpace=wrap;html=1;fillColor=#fff2cc;strokeColor=#d6b656;strokeWidth=2;fontSize=13;fontStyle=1" vertex="1" parent="WIyWlLk6GJQsqaUBKTNV-1">
          <mxGeometry x="440" y="605" width="156" height="80" as="geometry" />
        </mxCell>
        <mxCell id="oWXgFaESNL9Rkz_xBfFm-16" value="" style="endArrow=classic;html=1;rounded=0;exitX=0;exitY=1;exitDx=0;exitDy=0;entryX=0.5;entryY=0;entryDx=0;entryDy=0;strokeWidth=2;fontSize=13;fontStyle=1" edge="1" parent="WIyWlLk6GJQsqaUBKTNV-1" source="oWXgFaESNL9Rkz_xBfFm-10" target="oWXgFaESNL9Rkz_xBfFm-13">
          <mxGeometry width="50" height="50" relative="1" as="geometry">
            <mxPoint x="390" y="595" as="sourcePoint" />
            <mxPoint x="440" y="545" as="targetPoint" />
          </mxGeometry>
        </mxCell>
        <mxCell id="oWXgFaESNL9Rkz_xBfFm-18" value="" style="endArrow=classic;html=1;rounded=0;exitX=1;exitY=1;exitDx=0;exitDy=0;entryX=0.5;entryY=0;entryDx=0;entryDy=0;strokeWidth=2;fontSize=13;fontStyle=1" edge="1" parent="WIyWlLk6GJQsqaUBKTNV-1" source="oWXgFaESNL9Rkz_xBfFm-10" target="oWXgFaESNL9Rkz_xBfFm-14">
          <mxGeometry width="50" height="50" relative="1" as="geometry">
            <mxPoint x="385" y="515" as="sourcePoint" />
            <mxPoint x="297" y="575" as="targetPoint" />
          </mxGeometry>
        </mxCell>
        <mxCell id="oWXgFaESNL9Rkz_xBfFm-19" value="Ingredient exist" style="text;html=1;align=center;verticalAlign=middle;whiteSpace=wrap;rounded=0;rotation=0;strokeWidth=2;fontSize=13;fontStyle=0" vertex="1" parent="WIyWlLk6GJQsqaUBKTNV-1">
          <mxGeometry x="254" y="559" width="100" height="30" as="geometry" />
        </mxCell>
        <mxCell id="oWXgFaESNL9Rkz_xBfFm-20" value="Ingredient does not exist" style="text;html=1;align=center;verticalAlign=middle;whiteSpace=wrap;rounded=0;rotation=0;strokeWidth=2;fontSize=13;fontStyle=0" vertex="1" parent="WIyWlLk6GJQsqaUBKTNV-1">
          <mxGeometry x="490" y="560" width="100" height="30" as="geometry" />
        </mxCell>
        <mxCell id="oWXgFaESNL9Rkz_xBfFm-21" value="" style="endArrow=classic;html=1;rounded=0;exitX=0.5;exitY=1;exitDx=0;exitDy=0;entryX=0.15;entryY=0.003;entryDx=0;entryDy=0;entryPerimeter=0;strokeWidth=2;fontSize=13;fontStyle=1" edge="1" parent="WIyWlLk6GJQsqaUBKTNV-1" source="oWXgFaESNL9Rkz_xBfFm-13" target="oWXgFaESNL9Rkz_xBfFm-12">
          <mxGeometry width="50" height="50" relative="1" as="geometry">
            <mxPoint x="463" y="515" as="sourcePoint" />
            <mxPoint x="569" y="575" as="targetPoint" />
          </mxGeometry>
        </mxCell>
        <mxCell id="oWXgFaESNL9Rkz_xBfFm-22" value="" style="endArrow=classic;html=1;rounded=0;exitX=0.5;exitY=1;exitDx=0;exitDy=0;entryX=0.859;entryY=-0.035;entryDx=0;entryDy=0;entryPerimeter=0;strokeWidth=2;fontSize=13;fontStyle=1" edge="1" parent="WIyWlLk6GJQsqaUBKTNV-1">
          <mxGeometry width="50" height="50" relative="1" as="geometry">
            <mxPoint x="519" y="687" as="sourcePoint" />
            <mxPoint x="521.52" y="741.7950000000001" as="targetPoint" />
          </mxGeometry>
        </mxCell>
        <mxCell id="oWXgFaESNL9Rkz_xBfFm-23" value="" style="endArrow=classic;html=1;rounded=0;exitX=0.5;exitY=1;exitDx=0;exitDy=0;entryX=0;entryY=0;entryDx=0;entryDy=0;strokeWidth=2;fontSize=13;fontStyle=1" edge="1" parent="WIyWlLk6GJQsqaUBKTNV-1" source="oWXgFaESNL9Rkz_xBfFm-9" target="oWXgFaESNL9Rkz_xBfFm-10">
          <mxGeometry width="50" height="50" relative="1" as="geometry">
            <mxPoint x="390" y="595" as="sourcePoint" />
            <mxPoint x="440" y="545" as="targetPoint" />
          </mxGeometry>
        </mxCell>
        <mxCell id="oWXgFaESNL9Rkz_xBfFm-24" value="" style="endArrow=classic;html=1;rounded=0;exitX=0.5;exitY=1;exitDx=0;exitDy=0;entryX=1;entryY=0;entryDx=0;entryDy=0;strokeWidth=2;fontSize=13;fontStyle=1" edge="1" parent="WIyWlLk6GJQsqaUBKTNV-1" source="oWXgFaESNL9Rkz_xBfFm-6" target="oWXgFaESNL9Rkz_xBfFm-10">
          <mxGeometry width="50" height="50" relative="1" as="geometry">
            <mxPoint x="483" y="535" as="sourcePoint" />
            <mxPoint x="589" y="595" as="targetPoint" />
          </mxGeometry>
        </mxCell>
        <mxCell id="oWXgFaESNL9Rkz_xBfFm-25" value="" style="endArrow=classic;html=1;rounded=0;exitX=0.5;exitY=1;exitDx=0;exitDy=0;entryX=0.5;entryY=0;entryDx=0;entryDy=0;strokeWidth=2;fontSize=13;fontStyle=1" edge="1" parent="WIyWlLk6GJQsqaUBKTNV-1" source="oWXgFaESNL9Rkz_xBfFm-5" target="oWXgFaESNL9Rkz_xBfFm-9">
          <mxGeometry width="50" height="50" relative="1" as="geometry">
            <mxPoint x="390" y="595" as="sourcePoint" />
            <mxPoint x="440" y="545" as="targetPoint" />
          </mxGeometry>
        </mxCell>
      </root>
    </mxGraphModel>
  </diagram>
</mxfile>
